HIERARCHY
ROOT Hips
{
	OFFSET 0.000000 0.000000 0.000000
	CHANNELS 6 Xposition Yposition Zposition Zrotation Yrotation Xrotation 
	JOINT LHipJoint
	{
		OFFSET 0.000000 0.000000 0.000000
		CHANNELS 3 Zrotation Yrotation Xrotation
		JOINT LeftUpLeg
		{
			OFFSET 1.363060 -1.794630 0.839290
			CHANNELS 3 Zrotation Yrotation Xrotation
			JOINT LeftLeg
			{
				OFFSET 2.448110 -6.726130 0.000000
				CHANNELS 3 Zrotation Yrotation Xrotation
				JOINT LeftFoot
				{
					OFFSET 2.562200 -7.039590 0.000000
					CHANNELS 3 Zrotation Yrotation Xrotation
					JOINT LeftToeBase
					{
						OFFSET 0.157640 -0.433110 2.322550
						CHANNELS 3 Zrotation Yrotation Xrotation
						End Site
						{
							OFFSET 0.000000 0.000000 0.000000
						}
					}
				}
			}
		}
	}
	JOINT RHipJoint
	{
		OFFSET 0.000000 0.000000 0.000000
		CHANNELS 3 Zrotation Yrotation Xrotation
		JOINT RightUpLeg
		{
			OFFSET -1.305520 -1.794630 0.839290
			CHANNELS 3 Zrotation Yrotation Xrotation
			JOINT RightLeg
			{
				OFFSET -2.542530 -6.985550 0.000000
				CHANNELS 3 Zrotation Yrotation Xrotation
				JOINT RightFoot
				{
					OFFSET -2.568260 -7.056230 0.000000
					CHANNELS 3 Zrotation Yrotation Xrotation
					JOINT RightToeBase
					{
						OFFSET -0.164730 -0.452590 2.363150
						CHANNELS 3 Zrotation Yrotation Xrotation
						End Site
						{
							OFFSET 0.000000 0.000000 0.000000
						}
					}
				}
			}
		}
	}
	JOINT LowerBack
	{
		OFFSET 0.000000 0.000000 0.000000
		CHANNELS 3 Zrotation Yrotation Xrotation
		JOINT Spine
		{
			OFFSET 0.028270 2.035590 -0.193380
			CHANNELS 3 Zrotation Yrotation Xrotation
			JOINT Spine1
			{
				OFFSET 0.056720 2.048850 -0.042750
				CHANNELS 3 Zrotation Yrotation Xrotation
				JOINT Neck
				{
					OFFSET 0.000000 0.000000 0.000000
					CHANNELS 3 Zrotation Yrotation Xrotation
					JOINT Neck1
					{
						OFFSET -0.054170 1.746240 0.172020
						CHANNELS 3 Zrotation Yrotation Xrotation
						JOINT Head
						{
							OFFSET 0.104070 1.761360 -0.123970
							CHANNELS 3 Zrotation Yrotation Xrotation
							End Site
							{
								OFFSET 0.000000 0.000000 0.000000
							}
						}
					}
				}
				JOINT LeftShoulder
				{
					OFFSET 0.000000 0.000000 0.000000
					CHANNELS 3 Zrotation Yrotation Xrotation
					JOINT LeftArm
					{
						OFFSET 3.362410 1.200890 -0.311210
						CHANNELS 3 Zrotation Yrotation Xrotation
						JOINT LeftForeArm
						{
							OFFSET 4.983000 -0.000000 -0.000000
							CHANNELS 3 Zrotation Yrotation Xrotation
							JOINT LeftHand
							{
								OFFSET 3.483560 -0.000000 -0.000000
								CHANNELS 3 Zrotation Yrotation Xrotation
								JOINT LeftFingerBase
								{
									OFFSET 0.000000 0.000000 0.000000
									CHANNELS 3 Zrotation Yrotation Xrotation
									JOINT LeftHandIndex1
									{
										OFFSET 0.715260 -0.000000 -0.000000
										CHANNELS 3 Zrotation Yrotation Xrotation
										End Site
										{
											OFFSET 0.000000 0.000000 0.000000
										}
									}
								}
								JOINT LThumb
								{
									OFFSET 0.000000 0.000000 0.000000
									CHANNELS 3 Zrotation Yrotation Xrotation
									End Site
									{
										OFFSET 0.000000 0.000000 0.000000
									}
								}
							}
						}
					}
				}
				JOINT RightShoulder
				{
					OFFSET 0.000000 0.000000 0.000000
					CHANNELS 3 Zrotation Yrotation Xrotation
					JOINT RightArm
					{
						OFFSET -3.136600 1.374050 -0.404650
						CHANNELS 3 Zrotation Yrotation Xrotation
						JOINT RightForeArm
						{
							OFFSET -5.241900 -0.000000 -0.000000
							CHANNELS 3 Zrotation Yrotation Xrotation
							JOINT RightHand
							{
								OFFSET -3.444170 -0.000000 -0.000000
								CHANNELS 3 Zrotation Yrotation Xrotation
								JOINT RightFingerBase
								{
									OFFSET 0.000000 0.000000 0.000000
									CHANNELS 3 Zrotation Yrotation Xrotation
									JOINT RightHandIndex1
									{
										OFFSET -0.622530 -0.000000 -0.000000
										CHANNELS 3 Zrotation Yrotation Xrotation
										End Site
										{
											OFFSET 0.000000 0.000000 0.000000
										}
									}
								}
								JOINT RThumb
								{
									OFFSET 0.000000 0.000000 0.000000
									CHANNELS 3 Zrotation Yrotation Xrotation
									End Site
									{
										OFFSET 0.000000 0.000000 0.000000
									}
								}
							}
						}
					}
				}
			}
		}
	}
}
MOTION
Frames: 4
Frame Time: 0.008333
33.696922 15.197740 7.753420 -35.461579 74.062076 -22.207337 2.428982 -3.668198 -4.919695 -10.133787 5.253161 -54.317234 15.330757 20.576722 77.138234 0.872680 6.873611 -27.653477 0.104200 2.081200 5.730200 -4.888630 2.613798 -3.301187 4.763455 1.300151 -31.274227 -6.627230 -16.034267 48.861284 -0.457767 -4.778970 -17.690621 -2.404600 9.662300 -27.890000 -6.025670 3.653776 35.353151 -1.416548 3.401240 1.170648 -1.537857 2.563527 -2.507025 -4.026276 7.397132 -25.265309 -0.287063 10.739296 -7.279007 -0.019700 4.761100 5.329400 -7.904821 -3.198477 1.508613 -80.668264 -41.487942 127.197218 38.441213 -44.908166 -13.890742 0.673639 -0.426292 -4.987170 1.221775 -8.086654 -0.077700 -7.125000 0.000000 0.000000 -18.890000 22.453800 10.828800 11.160145 4.428529 0.142242 64.759550 10.156947 43.856711 -11.964204 23.849844 -3.830150 -0.066004 1.948286 -52.215816 9.457559 -34.884658 -4.752500 7.125000 0.000000 0.000000 47.523200 -59.721800 -19.710100 
33.747787 15.255795 7.738933 -36.383476 74.340871 -23.019914 2.423468 -3.671574 -4.894444 -10.173641 4.781522 -53.841761 15.081827 20.594233 76.460663 0.891866 6.937500 -27.886999 0.144600 2.450500 6.752500 -4.885889 2.612928 -3.242157 5.258863 1.482366 -31.900527 -6.624991 -16.099890 48.901275 -0.468666 -4.639700 -17.704508 -2.277000 9.420600 -27.120000 -6.156864 3.526364 35.388063 -1.337228 3.211601 1.107566 -1.143248 2.439179 -2.655907 -4.042627 7.311441 -25.963409 -0.028542 10.723887 -7.076584 0.101000 4.757500 5.556500 -7.904300 -3.217207 1.439978 -80.159142 -41.336276 126.521242 38.541068 -44.928834 -13.916803 0.655005 -0.405442 -5.911102 2.408449 -7.727305 -0.227300 -7.125000 0.000000 0.000000 -18.088000 22.777700 10.176600 11.179039 4.497739 0.141308 64.561503 10.205427 44.551441 -12.396482 24.263248 -3.968735 -0.061554 1.968203 -52.469340 9.005970 -35.357644 -4.517400 7.125000 0.000000 0.000000 47.657100 -60.168100 -20.299500 
33.802564 15.319773 7.722542 -37.256900 74.734165 -23.831001 2.393964 -3.685274 -4.843691 -10.294405 4.147692 -53.221926 14.790833 20.621845 75.683197 0.885370 7.117645 -28.149956 0.177500 2.713800 7.482800 -4.868000 2.601450 -3.172658 5.688584 1.501817 -32.549524 -6.649155 -16.168227 49.031791 -0.462624 -4.607277 -17.616477 -2.157600 9.186900 -26.381700 -6.338033 3.440472 35.626665 -1.200729 3.018514 0.924569 -0.616418 2.332420 -3.367777 -3.658344 7.505729 -25.495089 -0.476465 10.732906 -7.298330 -0.191600 4.715900 5.480000 -7.854786 -3.339326 1.392336 -79.965785 -40.562673 125.885091 38.543474 -44.946172 -13.882081 0.623183 -0.375738 -7.597781 3.607234 -7.346439 -0.365100 -7.125000 0.000000 0.000000 -17.258300 23.118700 9.521600 11.255266 4.501748 0.109371 64.104626 9.513679 45.725156 -13.114200 24.987436 -4.203314 -0.097265 1.987729 -53.195712 8.714817 -35.995419 -4.401700 7.125000 0.000000 0.000000 48.195300 -60.702400 -21.217000 
33.863158 15.382693 7.705939 -37.770412 75.198713 -24.289539 2.355758 -3.709771 -4.803177 -10.579585 3.490712 -52.477271 14.469663 20.658174 74.842824 0.850230 7.429981 -28.453264 0.169600 2.653100 7.314400 -4.832828 2.595398 -3.135071 6.016735 1.291429 -33.238563 -6.701876 -16.237638 49.251390 -0.479228 -4.412300 -17.637224 -2.179200 9.229800 -26.516800 -6.399438 3.268333 35.519918 -1.136782 2.789984 0.868124 -0.321479 2.209006 -3.501630 -3.537917 7.541810 -25.383028 -0.572868 10.711572 -7.330683 -0.275100 4.691600 5.473200 -7.848334 -3.380355 1.349188 -79.728167 -40.077372 125.217558 38.500138 -44.938168 -13.840813 0.600181 -0.372111 -9.992042 3.875386 -6.892998 -0.375200 -7.125000 0.000000 0.000000 -17.096000 23.566400 9.238200 11.292295 4.500815 0.104386 63.728809 9.164867 46.958635 -13.900703 25.791371 -4.457584 -0.148841 1.995965 -54.005818 8.913298 -36.359133 -4.568200 7.125000 0.000000 0.000000 48.880100 -60.924900 -21.867300 
